<svg 
 xmlns="http://www.w3.org/2000/svg"
 xmlns:xlink="http://www.w3.org/1999/xlink"
 width="39px" height="36px">
<path fill-rule="evenodd"  fill="rgb(175, 0, 255)"
 d="M38.238,20.015 L36.689,20.015 C36.269,20.015 35.928,19.678 35.928,19.262 C35.928,18.847 36.269,18.510 36.689,18.510 L38.238,18.510 C38.659,18.510 39.000,18.847 39.000,19.262 C39.000,19.678 38.659,20.015 38.238,20.015 ZM20.826,35.411 C20.489,35.785 20.006,35.999 19.499,35.999 C19.499,35.999 19.499,35.999 19.499,35.999 C18.993,35.999 18.509,35.785 18.172,35.411 L4.563,20.318 C4.032,19.729 3.965,18.856 4.400,18.193 L8.656,11.720 C8.985,11.220 9.542,10.921 10.146,10.921 L28.867,10.921 C29.472,10.921 30.029,11.221 30.358,11.722 L34.601,18.195 C35.035,18.856 34.967,19.729 34.437,20.317 L20.826,35.411 ZM32.669,20.015 L25.002,20.015 L20.948,33.014 L32.669,20.015 ZM19.499,32.547 L23.407,20.015 L15.591,20.015 L19.499,32.547 ZM18.050,33.013 L13.997,20.015 L6.330,20.015 L18.050,33.013 ZM9.601,13.045 L6.009,18.510 L13.179,18.510 L9.601,13.045 ZM11.010,12.426 L14.569,17.861 L18.130,12.426 L11.010,12.426 ZM15.959,18.510 L23.039,18.510 L19.499,13.106 L15.959,18.510 ZM20.869,12.426 L24.439,17.877 L28.007,12.426 L20.869,12.426 ZM29.414,13.049 L25.839,18.510 L32.993,18.510 L29.414,13.049 ZM30.768,9.208 C30.619,9.356 30.424,9.429 30.229,9.429 C30.034,9.429 29.839,9.356 29.691,9.208 C29.393,8.915 29.393,8.439 29.691,8.145 L32.221,5.645 C32.518,5.351 33.001,5.351 33.298,5.645 C33.596,5.939 33.596,6.415 33.298,6.709 L30.768,9.208 ZM19.519,7.448 C19.719,7.448 19.916,7.529 20.057,7.668 C20.200,7.808 20.281,8.002 20.281,8.200 C20.281,8.398 20.200,8.593 20.057,8.733 C19.916,8.873 19.719,8.953 19.519,8.953 C19.319,8.953 19.122,8.873 18.980,8.733 C18.839,8.593 18.757,8.399 18.757,8.200 C18.757,8.002 18.839,7.808 18.980,7.668 C19.122,7.529 19.319,7.448 19.519,7.448 ZM19.519,6.408 C19.099,6.408 18.758,6.070 18.758,5.655 L18.758,0.751 C18.758,0.336 19.099,-0.001 19.519,-0.001 C19.940,-0.001 20.281,0.336 20.281,0.751 L20.281,5.655 C20.281,6.070 19.940,6.408 19.519,6.408 ZM8.804,9.416 C8.609,9.416 8.414,9.342 8.265,9.195 L5.735,6.695 C5.437,6.401 5.437,5.925 5.735,5.632 C6.032,5.337 6.515,5.337 6.812,5.632 L9.342,8.131 C9.640,8.425 9.640,8.901 9.342,9.195 C9.193,9.342 8.998,9.416 8.804,9.416 ZM2.310,20.015 L0.762,20.015 C0.341,20.015 -0.000,19.678 -0.000,19.262 C-0.000,18.847 0.341,18.510 0.762,18.510 L2.310,18.510 C2.731,18.510 3.072,18.847 3.072,19.262 C3.072,19.678 2.731,20.015 2.310,20.015 Z"/>
</svg>