<svg 
 xmlns="http://www.w3.org/2000/svg"
 xmlns:xlink="http://www.w3.org/1999/xlink"
 width="31px" height="31px">
<path fill-rule="evenodd"  fill="rgb(15, 123, 255)"
 d="M29.184,30.999 L6.902,30.999 C5.901,30.999 5.086,30.184 5.086,29.182 L5.086,23.996 C5.086,23.661 5.357,23.391 5.691,23.391 C6.026,23.391 6.297,23.661 6.297,23.996 L6.297,29.182 C6.297,29.516 6.568,29.787 6.902,29.787 L29.184,29.787 C29.517,29.787 29.789,29.516 29.789,29.182 L29.789,6.719 L26.096,6.719 C25.094,6.719 24.279,5.905 24.279,4.903 L24.279,1.210 L6.902,1.210 C6.568,1.210 6.297,1.481 6.297,1.815 L6.297,2.603 C6.845,2.483 7.414,2.421 7.998,2.421 C8.332,2.421 8.603,2.692 8.603,3.026 L8.603,10.419 C8.603,10.753 8.332,11.024 7.998,11.024 L0.605,11.024 C0.271,11.024 -0.000,10.753 -0.000,10.419 C-0.000,7.035 2.112,4.137 5.086,2.969 L5.086,1.815 C5.086,0.814 5.901,-0.001 6.902,-0.001 L24.885,-0.001 C25.045,-0.001 25.199,0.063 25.313,0.176 L30.823,5.685 C30.936,5.799 31.000,5.952 31.000,6.113 L31.000,29.182 C31.000,30.184 30.185,30.999 29.184,30.999 ZM1.238,9.813 L7.392,9.813 L7.392,3.658 C4.132,3.948 1.527,6.552 1.238,9.813 ZM25.490,2.066 L25.490,4.903 C25.490,5.237 25.762,5.509 26.096,5.509 L28.933,5.509 L25.490,2.066 ZM26.682,14.405 C26.795,14.517 26.860,14.673 26.860,14.833 C26.860,14.992 26.795,15.148 26.682,15.261 C26.570,15.374 26.414,15.438 26.254,15.438 C26.094,15.438 25.939,15.374 25.826,15.261 C25.713,15.148 25.649,14.992 25.649,14.833 C25.649,14.673 25.714,14.517 25.826,14.405 C25.939,14.292 26.095,14.227 26.254,14.227 C26.414,14.227 26.570,14.292 26.682,14.405 ZM20.302,14.227 L23.498,14.227 C23.832,14.227 24.103,14.498 24.103,14.833 C24.103,15.167 23.832,15.438 23.498,15.438 L20.302,15.438 C19.968,15.438 19.697,15.167 19.697,14.833 C19.697,14.498 19.968,14.227 20.302,14.227 ZM27.698,9.626 L20.302,9.626 C19.968,9.626 19.697,9.354 19.697,9.021 C19.697,8.686 19.968,8.415 20.302,8.415 L27.698,8.415 C28.032,8.415 28.304,8.686 28.304,9.021 C28.304,9.354 28.032,9.626 27.698,9.626 ZM27.698,12.532 L20.302,12.532 C19.968,12.532 19.697,12.261 19.697,11.926 C19.697,11.592 19.968,11.321 20.302,11.321 L27.698,11.321 C28.032,11.321 28.304,11.592 28.304,11.926 C28.304,12.261 28.032,12.532 27.698,12.532 ZM11.135,28.573 C10.133,28.573 9.318,27.758 9.318,26.756 C9.318,25.755 10.133,24.940 11.135,24.940 C11.414,24.940 11.679,25.004 11.916,25.116 L14.137,22.895 C14.030,22.664 13.970,22.406 13.970,22.135 C13.970,21.133 14.785,20.319 15.786,20.319 C16.788,20.319 17.603,21.133 17.603,22.135 C17.603,22.368 17.558,22.591 17.478,22.796 L19.794,25.112 C20.030,25.000 20.293,24.937 20.570,24.937 C20.854,24.937 21.123,25.003 21.363,25.120 L24.851,21.632 C24.759,21.414 24.707,21.175 24.707,20.924 C24.707,19.922 25.522,19.108 26.524,19.108 C27.525,19.108 28.340,19.922 28.340,20.924 C28.340,21.925 27.525,22.740 26.524,22.740 C26.215,22.740 25.924,22.663 25.669,22.527 L22.214,25.982 C22.324,26.216 22.386,26.478 22.386,26.754 C22.386,27.756 21.572,28.571 20.570,28.571 C19.568,28.571 18.754,27.756 18.754,26.754 C18.754,26.471 18.819,26.204 18.934,25.965 L16.683,23.714 C16.419,23.865 16.113,23.951 15.787,23.951 C15.498,23.951 15.225,23.884 14.982,23.763 L12.773,25.972 C12.887,26.210 12.951,26.476 12.951,26.756 C12.951,27.758 12.136,28.573 11.135,28.573 ZM11.570,26.336 C11.567,26.333 11.564,26.331 11.561,26.328 C11.558,26.325 11.556,26.323 11.554,26.320 C11.445,26.216 11.297,26.152 11.135,26.152 C10.801,26.152 10.529,26.422 10.529,26.756 C10.529,27.091 10.801,27.362 11.135,27.362 C11.469,27.362 11.740,27.091 11.740,26.756 C11.740,26.594 11.675,26.445 11.570,26.336 ZM26.524,21.529 C26.858,21.529 27.129,21.258 27.129,20.924 C27.129,20.590 26.858,20.319 26.524,20.319 C26.190,20.319 25.918,20.590 25.918,20.924 C25.918,21.258 26.190,21.529 26.524,21.529 ZM20.570,27.359 C20.904,27.359 21.175,27.088 21.175,26.754 C21.175,26.420 20.904,26.149 20.570,26.149 C20.236,26.149 19.964,26.420 19.964,26.754 C19.964,27.088 20.236,27.359 20.570,27.359 ZM15.786,22.740 C16.120,22.740 16.392,22.469 16.392,22.135 C16.392,21.801 16.120,21.529 15.786,21.529 C15.453,21.529 15.181,21.801 15.181,22.135 C15.181,22.469 15.453,22.740 15.786,22.740 ZM6.119,21.368 C6.232,21.480 6.297,21.636 6.297,21.796 C6.297,21.955 6.232,22.111 6.119,22.224 C6.007,22.336 5.851,22.401 5.691,22.401 C5.532,22.401 5.376,22.336 5.263,22.224 C5.151,22.111 5.086,21.955 5.086,21.796 C5.086,21.636 5.151,21.480 5.263,21.368 C5.376,21.255 5.532,21.191 5.691,21.191 C5.851,21.191 6.007,21.255 6.119,21.368 ZM2.774,11.981 L9.561,11.981 L9.561,5.195 C9.561,4.861 9.832,4.589 10.166,4.589 C14.576,4.589 18.164,8.177 18.164,12.588 C18.164,16.997 14.576,20.584 10.166,20.584 C5.756,20.584 2.169,16.997 2.169,12.588 C2.169,12.252 2.440,11.981 2.774,11.981 ZM10.772,5.827 L10.772,11.125 L14.516,7.381 C13.482,6.517 12.189,5.953 10.772,5.827 ZM10.166,19.374 C13.909,19.374 16.953,16.329 16.953,12.588 C16.953,10.933 16.359,9.417 15.372,8.238 L10.594,13.015 C10.594,13.016 10.594,13.016 10.594,13.016 C10.485,13.125 10.333,13.192 10.166,13.192 L3.406,13.192 C3.714,16.652 6.628,19.374 10.166,19.374 Z"/>
</svg>