<svg 
 xmlns="http://www.w3.org/2000/svg"
 xmlns:xlink="http://www.w3.org/1999/xlink"
 width="55px" height="55px">
<path fill-rule="evenodd"  fill="rgb(15, 123, 255)"
 d="M54.975,1.431 C54.967,1.469 54.971,1.507 54.959,1.544 L38.215,54.166 C38.064,54.641 37.634,54.972 37.135,54.997 C37.115,54.999 37.096,54.999 37.076,54.999 C36.601,54.999 36.168,54.716 35.978,54.278 L25.354,29.684 L0.768,20.237 C0.297,20.056 -0.009,19.601 0.001,19.097 C0.010,18.594 0.334,18.150 0.810,17.990 L53.433,0.050 C53.474,0.037 53.515,0.040 53.556,0.030 C53.621,0.015 53.684,0.001 53.750,-0.002 C53.820,-0.006 53.889,-0.000 53.959,0.008 C54.019,0.015 54.076,0.023 54.135,0.038 C54.204,0.060 54.269,0.086 54.335,0.118 C54.369,0.135 54.407,0.140 54.440,0.161 C54.460,0.172 54.473,0.193 54.494,0.207 C54.550,0.247 54.599,0.292 54.648,0.341 C54.697,0.390 54.744,0.438 54.783,0.493 C54.799,0.513 54.820,0.528 54.833,0.549 C54.854,0.583 54.860,0.620 54.877,0.655 C54.908,0.718 54.935,0.780 54.955,0.848 C54.975,0.910 54.984,0.971 54.992,1.035 C55.001,1.101 55.004,1.164 55.002,1.231 C55.000,1.298 54.989,1.364 54.975,1.431 ZM4.706,19.187 L25.955,27.352 L49.336,3.972 L4.706,19.187 ZM27.672,29.019 L36.905,50.393 L51.188,5.502 L27.672,29.019 ZM8.723,31.430 C9.190,30.962 9.946,30.962 10.414,31.430 C10.881,31.897 10.881,32.654 10.414,33.121 L2.042,41.493 C1.809,41.726 1.503,41.844 1.197,41.844 C0.890,41.844 0.584,41.726 0.351,41.493 C-0.117,41.025 -0.117,40.270 0.351,39.802 L8.723,31.430 ZM17.095,36.214 C17.562,35.746 18.318,35.746 18.786,36.214 C19.253,36.682 19.253,37.437 18.786,37.905 L2.042,54.649 C1.809,54.882 1.503,54.999 1.197,54.999 C0.890,54.999 0.584,54.882 0.351,54.649 C-0.117,54.181 -0.117,53.425 0.351,52.957 L17.095,36.214 ZM21.878,44.585 C22.346,44.118 23.102,44.118 23.570,44.585 C24.037,45.053 24.037,45.810 23.570,46.277 L15.198,54.649 C14.965,54.882 14.658,54.999 14.352,54.999 C14.046,54.999 13.740,54.882 13.507,54.649 C13.039,54.181 13.039,53.425 13.507,52.957 L21.878,44.585 Z"/>
</svg>