<svg 
 xmlns="http://www.w3.org/2000/svg"
 xmlns:xlink="http://www.w3.org/1999/xlink"
 width="61px" height="61px">
<path fill-rule="evenodd"  fill="rgb(15, 123, 255)"
 d="M59.288,15.342 C57.734,19.845 55.126,24.005 51.747,27.373 L44.035,35.057 L42.599,46.147 C42.567,46.400 42.451,46.635 42.270,46.815 L31.538,57.508 C31.317,57.728 31.021,57.847 30.719,57.847 C30.604,57.847 30.489,57.829 30.376,57.795 C29.966,57.668 29.660,57.325 29.581,56.904 L28.078,48.818 L26.484,47.229 L24.645,50.612 C24.471,50.932 24.156,51.151 23.795,51.204 C23.739,51.212 23.683,51.216 23.628,51.216 C23.323,51.216 23.028,51.096 22.810,50.878 L9.936,38.051 C9.678,37.794 9.557,37.430 9.610,37.070 C9.662,36.710 9.883,36.395 10.204,36.222 L13.598,34.390 L12.004,32.802 L3.889,31.304 C3.467,31.226 3.122,30.921 2.995,30.513 C2.867,30.104 2.978,29.658 3.281,29.356 L14.014,18.662 C14.195,18.481 14.431,18.366 14.684,18.333 L25.816,16.903 L33.527,9.219 C36.907,5.852 41.082,3.254 45.601,1.706 C50.120,0.158 55.016,-0.352 59.760,0.233 C60.286,0.298 60.701,0.711 60.766,1.236 C61.352,5.961 60.841,10.840 59.288,15.342 ZM31.456,54.329 L40.354,45.463 L41.356,37.725 L30.399,48.643 L31.456,54.329 ZM12.670,37.514 L23.349,48.155 L24.776,45.529 L15.306,36.092 L12.670,37.514 ZM15.371,20.570 L6.473,29.437 L12.180,30.490 L23.137,19.572 L15.371,20.570 ZM35.164,10.850 L14.204,31.734 L29.150,46.625 L50.110,25.742 C53.155,22.708 55.522,18.978 56.974,14.937 C54.275,14.415 51.772,13.101 49.812,11.148 C47.852,9.194 46.532,6.700 46.008,4.010 C41.953,5.458 38.209,7.815 35.164,10.850 ZM58.567,2.424 C55.109,2.109 51.586,2.416 48.231,3.317 C48.631,5.653 49.753,7.828 51.448,9.517 C53.143,11.206 55.325,12.323 57.671,12.722 C58.575,9.380 58.883,5.869 58.567,2.424 ZM43.963,26.867 C42.594,28.231 40.796,28.912 38.999,28.912 C37.201,28.912 35.403,28.231 34.035,26.867 C31.298,24.140 31.298,19.703 34.035,16.975 C36.772,14.248 41.225,14.248 43.963,16.975 C46.700,19.703 46.700,24.140 43.963,26.867 L43.963,26.867 ZM42.326,18.606 C41.409,17.692 40.204,17.235 38.999,17.235 C37.794,17.235 36.589,17.692 35.671,18.606 C33.836,20.434 33.836,23.408 35.671,25.236 C37.506,27.064 40.491,27.064 42.326,25.236 C44.161,23.408 44.161,20.434 42.326,18.606 ZM6.445,48.269 C6.897,48.720 6.897,49.450 6.445,49.900 L1.972,54.356 C1.746,54.581 1.450,54.694 1.154,54.694 C0.858,54.694 0.562,54.581 0.336,54.356 C-0.116,53.906 -0.116,53.177 0.336,52.727 L4.809,48.269 C5.261,47.819 5.993,47.819 6.445,48.269 ZM7.052,47.354 C7.062,47.368 7.068,47.378 7.049,47.349 C7.030,47.321 7.037,47.332 7.046,47.345 C6.753,46.898 6.807,46.296 7.178,45.910 C7.524,45.549 8.084,45.456 8.531,45.680 C8.952,45.893 9.211,46.353 9.163,46.822 C9.114,47.302 8.761,47.710 8.292,47.827 C7.822,47.945 7.325,47.749 7.052,47.354 ZM10.466,45.416 C10.170,45.416 9.874,45.304 9.648,45.079 C9.196,44.629 9.196,43.898 9.648,43.448 L10.264,42.834 C10.715,42.384 11.448,42.384 11.900,42.834 C12.352,43.284 12.352,44.014 11.900,44.465 L11.284,45.078 C11.059,45.304 10.762,45.416 10.466,45.416 ZM13.428,45.987 C13.879,45.537 14.612,45.537 15.064,45.987 C15.516,46.437 15.516,47.167 15.064,47.617 L5.136,57.509 C4.910,57.735 4.614,57.847 4.318,57.847 C4.022,57.847 3.726,57.734 3.500,57.509 C3.048,57.059 3.048,56.328 3.500,55.878 L13.428,45.987 ZM7.280,58.417 C7.731,57.967 8.464,57.967 8.916,58.417 C9.368,58.867 9.368,59.598 8.916,60.048 L8.300,60.662 C8.074,60.887 7.778,60.999 7.482,60.999 C7.186,60.999 6.890,60.887 6.664,60.661 C6.212,60.211 6.212,59.481 6.664,59.031 L7.280,58.417 ZM10.552,55.633 C11.012,55.633 11.449,55.919 11.620,56.345 C11.829,56.839 11.651,57.427 11.213,57.732 C10.802,58.019 10.229,58.002 9.836,57.692 C9.451,57.389 9.297,56.859 9.463,56.398 C9.626,55.945 10.068,55.633 10.552,55.633 ZM16.591,49.139 C17.043,48.689 17.776,48.689 18.228,49.139 C18.680,49.589 18.680,50.319 18.228,50.769 L13.755,55.226 C13.529,55.451 13.233,55.564 12.937,55.564 C12.641,55.564 12.344,55.451 12.118,55.226 C11.666,54.776 11.666,54.046 12.118,53.596 L16.591,49.139 Z"/>
</svg>