<svg 
 xmlns="http://www.w3.org/2000/svg"
 xmlns:xlink="http://www.w3.org/1999/xlink"
 width="47px" height="47px">
<path fill-rule="evenodd"  fill="rgb(15, 123, 255)"
 d="M42.410,47.000 L4.590,47.000 C2.059,47.000 -0.000,44.940 -0.000,42.409 L-0.000,17.166 C-0.000,16.859 0.150,16.589 0.381,16.422 C0.380,16.422 0.380,16.422 0.380,16.422 L4.957,13.110 L4.957,2.753 C4.957,1.235 6.192,-0.001 7.711,-0.001 L12.714,-0.001 C13.221,-0.001 13.632,0.411 13.632,0.917 C13.632,1.424 13.221,1.835 12.714,1.835 L7.711,1.835 C7.205,1.835 6.793,2.248 6.793,2.753 L6.793,20.777 L17.998,29.926 L20.809,27.892 C22.419,26.727 24.581,26.727 26.191,27.892 L29.002,29.926 L40.207,20.777 L40.207,2.753 C40.207,2.248 39.795,1.835 39.289,1.835 L19.874,1.835 C19.367,1.835 18.956,1.424 18.956,0.917 C18.956,0.411 19.367,-0.001 19.874,-0.001 L39.289,-0.001 C40.808,-0.001 42.043,1.235 42.043,2.753 L42.043,13.110 L46.620,16.422 C46.855,16.591 46.985,16.851 46.998,17.120 C46.999,17.134 47.000,17.149 47.000,17.166 L47.000,42.409 C47.000,44.940 44.941,47.000 42.410,47.000 ZM4.957,15.376 L2.423,17.209 L4.957,19.278 L4.957,15.376 ZM1.836,19.100 L1.836,41.621 L16.459,31.040 L1.836,19.100 ZM25.114,29.379 C24.149,28.681 22.851,28.681 21.886,29.379 L2.141,43.666 C2.598,44.554 3.524,45.164 4.590,45.164 L42.410,45.164 C43.476,45.164 44.402,44.554 44.859,43.666 L43.376,42.593 L31.670,42.593 C31.163,42.593 30.752,42.182 30.752,41.675 C30.752,41.168 31.163,40.757 31.670,40.757 L40.839,40.757 L25.114,29.379 ZM42.043,15.376 L42.043,19.278 L44.577,17.209 L42.043,15.376 ZM45.164,19.100 L30.541,31.040 L45.164,41.621 L45.164,19.100 ZM27.509,42.593 C27.266,42.593 27.030,42.495 26.860,42.324 C26.688,42.153 26.591,41.917 26.591,41.675 C26.591,41.433 26.688,41.197 26.860,41.026 C27.030,40.856 27.266,40.757 27.509,40.757 C27.750,40.757 27.987,40.856 28.158,41.026 C28.328,41.197 28.427,41.433 28.427,41.675 C28.427,41.917 28.328,42.153 28.158,42.324 C27.987,42.495 27.750,42.593 27.509,42.593 ZM23.500,4.956 C28.586,4.956 32.724,9.094 32.724,14.180 C32.724,19.266 28.586,23.403 23.500,23.403 C18.414,23.403 14.276,19.266 14.276,14.180 C14.276,9.094 18.414,4.956 23.500,4.956 ZM23.500,21.567 C27.574,21.567 30.888,18.254 30.888,14.180 C30.888,10.107 27.574,6.792 23.500,6.792 C19.426,6.792 16.112,10.107 16.112,14.180 C16.112,18.254 19.426,21.567 23.500,21.567 ZM20.274,13.512 L22.221,15.459 L26.726,10.954 C27.084,10.596 27.666,10.596 28.024,10.954 C28.382,11.313 28.382,11.894 28.024,12.252 L22.870,17.406 C22.698,17.579 22.465,17.675 22.221,17.675 C21.978,17.675 21.744,17.579 21.572,17.406 L18.976,14.810 C18.617,14.451 18.617,13.870 18.976,13.512 C19.334,13.153 19.915,13.153 20.274,13.512 ZM16.271,1.835 C16.030,1.835 15.793,1.737 15.622,1.567 C15.451,1.396 15.353,1.160 15.353,0.917 C15.353,0.676 15.451,0.439 15.622,0.268 C15.793,0.097 16.028,-0.001 16.271,-0.001 C16.512,-0.001 16.749,0.097 16.920,0.268 C17.091,0.439 17.189,0.676 17.189,0.917 C17.189,1.159 17.091,1.396 16.920,1.567 C16.749,1.737 16.512,1.835 16.271,1.835 Z"/>
</svg>