<?xml version="1.0" encoding="UTF-8" standalone="no"?>
<!DOCTYPE svg PUBLIC "-//W3C//DTD SVG 1.1//EN" "http://www.w3.org/Graphics/SVG/1.1/DTD/svg11.dtd">
<svg version="1.1" xmlns="http://www.w3.org/2000/svg" xmlns:xlink="http://www.w3.org/1999/xlink" preserveAspectRatio="xMidYMid meet" viewBox="0 0 640 640" width="640" height="640"><defs><path d="M485 50L485 0L535 0L535 50L565 50L568.09 50.06L571.14 50.25L574.16 50.56L577.15 50.98L580.1 51.53L583 52.18L585.86 52.95L588.68 53.83L591.45 54.81L594.17 55.9L596.83 57.09L599.44 58.38L601.99 59.77L604.48 61.25L606.9 62.83L609.27 64.49L611.56 66.24L613.78 68.08L615.93 69.99L618.01 71.99L620.01 74.07L621.92 76.22L623.76 78.44L625.51 80.73L627.17 83.1L628.75 85.52L630.23 88.01L631.62 90.56L632.91 93.17L634.1 95.83L635.19 98.55L636.17 101.32L637.05 104.14L637.82 107L638.47 109.9L639.02 112.85L639.44 115.84L639.75 118.86L639.94 121.91L640 125L640 565L639.94 568.09L639.75 571.14L639.44 574.16L639.02 577.15L638.47 580.1L637.82 583L637.05 585.86L636.17 588.68L635.19 591.45L634.1 594.17L632.91 596.83L631.62 599.44L630.23 601.99L628.75 604.48L627.17 606.9L625.51 609.27L623.76 611.56L621.92 613.78L620.01 615.93L618.01 618.01L615.93 620.01L613.78 621.92L611.56 623.76L609.27 625.51L606.9 627.17L604.48 628.75L601.99 630.23L599.44 631.62L596.83 632.91L594.17 634.1L591.45 635.19L588.68 636.17L585.86 637.05L583 637.82L580.1 638.47L577.15 639.02L574.16 639.44L571.14 639.75L568.09 639.94L565 640L75 640L71.91 639.94L68.86 639.75L65.84 639.44L62.85 639.02L59.9 638.47L57 637.82L54.14 637.05L51.32 636.17L48.55 635.19L45.83 634.1L43.17 632.91L40.56 631.62L38.01 630.23L35.52 628.75L33.1 627.17L30.73 625.51L28.44 623.76L26.22 621.92L24.07 620.01L21.99 618.01L19.99 615.93L18.08 613.78L16.24 611.56L14.49 609.27L12.83 606.9L11.25 604.48L9.77 601.99L8.38 599.44L7.09 596.83L5.9 594.17L4.81 591.45L3.83 588.68L2.95 585.86L2.18 583L1.53 580.1L0.98 577.15L0.56 574.16L0.25 571.14L0.06 568.09L0 565L0 125L0.06 121.91L0.25 118.86L0.56 115.84L0.98 112.85L1.53 109.9L2.18 107L2.95 104.14L3.83 101.32L4.81 98.55L5.9 95.83L7.09 93.17L8.38 90.56L9.77 88.01L11.25 85.52L12.83 83.1L14.49 80.73L16.24 78.44L18.08 76.22L19.99 74.07L21.99 71.99L24.07 69.99L26.22 68.08L28.44 66.24L30.73 64.49L33.1 62.83L35.52 61.25L38.01 59.77L40.56 58.38L43.17 57.09L45.83 55.9L48.55 54.81L51.32 53.83L54.14 52.95L57 52.18L59.9 51.53L62.85 50.98L65.84 50.56L68.86 50.25L71.91 50.06L75 50L105 50L105 0L155 0L155 50L485 50ZM50 565L50.02 566.03L50.08 567.05L50.19 568.05L50.33 569.05L50.51 570.03L50.73 571L50.98 571.95L51.28 572.89L51.6 573.82L51.97 574.72L52.36 575.61L52.79 576.48L53.26 577.33L53.75 578.16L54.28 578.97L54.83 579.76L55.41 580.52L56.03 581.26L56.66 581.98L57.33 582.67L58.02 583.34L58.74 583.97L59.48 584.59L60.24 585.17L61.03 585.72L61.84 586.25L62.67 586.74L63.52 587.21L64.39 587.64L65.28 588.03L66.18 588.4L67.11 588.72L68.05 589.02L69 589.27L69.97 589.49L70.95 589.67L71.95 589.81L72.95 589.92L73.97 589.98L75 590L565 590L565.69 589.98L566.37 589.94L567.05 589.86L567.73 589.75L568.41 589.61L569.08 589.44L569.75 589.23L570.41 589L571.07 588.73L571.73 588.44L572.39 588.11L573.04 587.75L573.69 587.36L574.33 586.94L574.98 586.48L575.62 586L576.25 585.48L576.89 584.94L577.52 584.36L578.14 583.75L578.77 583.11L579.39 582.44L580 581.73L580.62 581L581.23 580.23L581.83 579.44L582.44 578.61L583.04 577.75L583.64 576.86L584.23 575.94L584.82 574.98L585.41 574L586 572.98L586.58 571.94L587.16 570.86L587.73 569.75L588.3 568.61L588.87 567.44L589.44 566.23L590 565L590 235L50 235L50 565Z" id="d2xpix8zh8"></path><path d="M145 287.5C145 287.5 145 287.5 145 287.5C145 317.5 145 334.17 145 337.5C145 337.5 145 337.5 145 337.5C115 337.5 98.33 337.5 95 337.5C95 337.5 95 337.5 95 337.5C95 307.5 95 290.83 95 287.5C95 287.5 95 287.5 95 287.5C125 287.5 141.67 287.5 145 287.5Z" id="b1UwCIgM9s"></path><path d="M245 287.5C245 287.5 245 287.5 245 287.5C245 317.5 245 334.17 245 337.5C245 337.5 245 337.5 245 337.5C215 337.5 198.33 337.5 195 337.5C195 337.5 195 337.5 195 337.5C195 307.5 195 290.83 195 287.5C195 287.5 195 287.5 195 287.5C225 287.5 241.67 287.5 245 287.5Z" id="a2Rr0yy7V"></path><path d="M345 287.5C345 287.5 345 287.5 345 287.5C345 317.5 345 334.17 345 337.5C345 337.5 345 337.5 345 337.5C315 337.5 298.33 337.5 295 337.5C295 337.5 295 337.5 295 337.5C295 307.5 295 290.83 295 287.5C295 287.5 295 287.5 295 287.5C325 287.5 341.67 287.5 345 287.5Z" id="bc0EUrbIq"></path><path d="M445 287.5C445 287.5 445 287.5 445 287.5C445 317.5 445 334.17 445 337.5C445 337.5 445 337.5 445 337.5C415 337.5 398.33 337.5 395 337.5C395 337.5 395 337.5 395 337.5C395 307.5 395 290.83 395 287.5C395 287.5 395 287.5 395 287.5C425 287.5 441.67 287.5 445 287.5Z" id="dadyJ7Q5Jt"></path><path d="M545 287.5C545 287.5 545 287.5 545 287.5C545 317.5 545 334.17 545 337.5C545 337.5 545 337.5 545 337.5C515 337.5 498.33 337.5 495 337.5C495 337.5 495 337.5 495 337.5C495 307.5 495 290.83 495 287.5C495 287.5 495 287.5 495 287.5C525 287.5 541.67 287.5 545 287.5Z" id="a4r6JqA5J"></path><path d="M145 387.5C145 387.5 145 387.5 145 387.5C145 417.5 145 434.17 145 437.5C145 437.5 145 437.5 145 437.5C115 437.5 98.33 437.5 95 437.5C95 437.5 95 437.5 95 437.5C95 407.5 95 390.83 95 387.5C95 387.5 95 387.5 95 387.5C125 387.5 141.67 387.5 145 387.5Z" id="ajYAahkyR"></path><path d="M245 387.5C245 387.5 245 387.5 245 387.5C245 417.5 245 434.17 245 437.5C245 437.5 245 437.5 245 437.5C215 437.5 198.33 437.5 195 437.5C195 437.5 195 437.5 195 437.5C195 407.5 195 390.83 195 387.5C195 387.5 195 387.5 195 387.5C225 387.5 241.67 387.5 245 387.5Z" id="c12SZxZ3JS"></path><path d="M345 387.5C345 387.5 345 387.5 345 387.5C345 417.5 345 434.17 345 437.5C345 437.5 345 437.5 345 437.5C315 437.5 298.33 437.5 295 437.5C295 437.5 295 437.5 295 437.5C295 407.5 295 390.83 295 387.5C295 387.5 295 387.5 295 387.5C325 387.5 341.67 387.5 345 387.5Z" id="b6OGiNqfM0"></path><path d="M445 387.5C445 387.5 445 387.5 445 387.5C445 417.5 445 434.17 445 437.5C445 437.5 445 437.5 445 437.5C415 437.5 398.33 437.5 395 437.5C395 437.5 395 437.5 395 437.5C395 407.5 395 390.83 395 387.5C395 387.5 395 387.5 395 387.5C425 387.5 441.67 387.5 445 387.5Z" id="d3gfl5lGnA"></path><path d="M145 487.5C145 487.5 145 487.5 145 487.5C145 517.5 145 534.17 145 537.5C145 537.5 145 537.5 145 537.5C115 537.5 98.33 537.5 95 537.5C95 537.5 95 537.5 95 537.5C95 507.5 95 490.83 95 487.5C95 487.5 95 487.5 95 487.5C125 487.5 141.67 487.5 145 487.5Z" id="a1vlXX2CRb"></path><path d="M245 487.5C245 487.5 245 487.5 245 487.5C245 517.5 245 534.17 245 537.5C245 537.5 245 537.5 245 537.5C215 537.5 198.33 537.5 195 537.5C195 537.5 195 537.5 195 537.5C195 507.5 195 490.83 195 487.5C195 487.5 195 487.5 195 487.5C225 487.5 241.67 487.5 245 487.5Z" id="a7DQUNlAvj"></path><path d="M345 487.5C345 487.5 345 487.5 345 487.5C345 517.5 345 534.17 345 537.5C345 537.5 345 537.5 345 537.5C315 537.5 298.33 537.5 295 537.5C295 537.5 295 537.5 295 537.5C295 507.5 295 490.83 295 487.5C295 487.5 295 487.5 295 487.5C325 487.5 341.67 487.5 345 487.5Z" id="bgeiM0U86"></path><path d="M445 487.5C445 487.5 445 487.5 445 487.5C445 517.5 445 534.17 445 537.5C445 537.5 445 537.5 445 537.5C415 537.5 398.33 537.5 395 537.5C395 537.5 395 537.5 395 537.5C395 507.5 395 490.83 395 487.5C395 487.5 395 487.5 395 487.5C425 487.5 441.67 487.5 445 487.5Z" id="e1hZiN1DP"></path><path d="M545 387.5C545 387.5 545 387.5 545 387.5C545 417.5 545 434.17 545 437.5C545 437.5 545 437.5 545 437.5C515 437.5 498.33 437.5 495 437.5C495 437.5 495 437.5 495 437.5C495 407.5 495 390.83 495 387.5C495 387.5 495 387.5 495 387.5C525 387.5 541.67 387.5 545 387.5Z" id="e1r4X83hTZ"></path></defs><g><g><g><use xlink:href="#d2xpix8zh8" opacity="1" fill="#929292" fill-opacity="1"></use><g><use xlink:href="#d2xpix8zh8" opacity="1" fill-opacity="0" stroke="#000000" stroke-width="1" stroke-opacity="0"></use></g></g><g><use xlink:href="#b1UwCIgM9s" opacity="1" fill="#929292" fill-opacity="1"></use><g><use xlink:href="#b1UwCIgM9s" opacity="1" fill-opacity="0" stroke="#000000" stroke-width="1" stroke-opacity="0"></use></g></g><g><use xlink:href="#a2Rr0yy7V" opacity="1" fill="#929292" fill-opacity="1"></use><g><use xlink:href="#a2Rr0yy7V" opacity="1" fill-opacity="0" stroke="#000000" stroke-width="1" stroke-opacity="0"></use></g></g><g><use xlink:href="#bc0EUrbIq" opacity="1" fill="#929292" fill-opacity="1"></use><g><use xlink:href="#bc0EUrbIq" opacity="1" fill-opacity="0" stroke="#000000" stroke-width="1" stroke-opacity="0"></use></g></g><g><use xlink:href="#dadyJ7Q5Jt" opacity="1" fill="#929292" fill-opacity="1"></use><g><use xlink:href="#dadyJ7Q5Jt" opacity="1" fill-opacity="0" stroke="#000000" stroke-width="1" stroke-opacity="0"></use></g></g><g><use xlink:href="#a4r6JqA5J" opacity="1" fill="#929292" fill-opacity="1"></use><g><use xlink:href="#a4r6JqA5J" opacity="1" fill-opacity="0" stroke="#000000" stroke-width="1" stroke-opacity="0"></use></g></g><g><use xlink:href="#ajYAahkyR" opacity="1" fill="#929292" fill-opacity="1"></use><g><use xlink:href="#ajYAahkyR" opacity="1" fill-opacity="0" stroke="#000000" stroke-width="1" stroke-opacity="0"></use></g></g><g><use xlink:href="#c12SZxZ3JS" opacity="1" fill="#929292" fill-opacity="1"></use><g><use xlink:href="#c12SZxZ3JS" opacity="1" fill-opacity="0" stroke="#000000" stroke-width="1" stroke-opacity="0"></use></g></g><g><use xlink:href="#b6OGiNqfM0" opacity="1" fill="#929292" fill-opacity="1"></use><g><use xlink:href="#b6OGiNqfM0" opacity="1" fill-opacity="0" stroke="#000000" stroke-width="1" stroke-opacity="0"></use></g></g><g><use xlink:href="#d3gfl5lGnA" opacity="1" fill="#929292" fill-opacity="1"></use><g><use xlink:href="#d3gfl5lGnA" opacity="1" fill-opacity="0" stroke="#000000" stroke-width="1" stroke-opacity="0"></use></g></g><g><use xlink:href="#a1vlXX2CRb" opacity="1" fill="#929292" fill-opacity="1"></use><g><use xlink:href="#a1vlXX2CRb" opacity="1" fill-opacity="0" stroke="#000000" stroke-width="1" stroke-opacity="0"></use></g></g><g><use xlink:href="#a7DQUNlAvj" opacity="1" fill="#929292" fill-opacity="1"></use><g><use xlink:href="#a7DQUNlAvj" opacity="1" fill-opacity="0" stroke="#000000" stroke-width="1" stroke-opacity="0"></use></g></g><g><use xlink:href="#bgeiM0U86" opacity="1" fill="#929292" fill-opacity="1"></use><g><use xlink:href="#bgeiM0U86" opacity="1" fill-opacity="0" stroke="#000000" stroke-width="1" stroke-opacity="0"></use></g></g><g><use xlink:href="#e1hZiN1DP" opacity="1" fill="#929292" fill-opacity="1"></use><g><use xlink:href="#e1hZiN1DP" opacity="1" fill-opacity="0" stroke="#000000" stroke-width="1" stroke-opacity="0"></use></g></g><g><use xlink:href="#e1r4X83hTZ" opacity="1" fill="#929292" fill-opacity="1"></use><g><use xlink:href="#e1r4X83hTZ" opacity="1" fill-opacity="0" stroke="#000000" stroke-width="1" stroke-opacity="0"></use></g></g></g></g></svg>