<?xml version="1.0" encoding="UTF-8" standalone="no"?>
<!DOCTYPE svg PUBLIC "-//W3C//DTD SVG 1.1//EN" "http://www.w3.org/Graphics/SVG/1.1/DTD/svg11.dtd">
<svg version="1.1" xmlns="http://www.w3.org/2000/svg" xmlns:xlink="http://www.w3.org/1999/xlink" preserveAspectRatio="xMidYMid meet" viewBox="0 0 640 640" width="640" height="640"><defs><path d="M559.22 25.89L562.76 26.25L566.26 26.75L569.72 27.39L573.13 28.16L576.49 29.06L579.79 30.09L583.04 31.24L586.23 32.52L589.35 33.92L592.41 35.43L595.4 37.06L598.33 38.79L601.17 40.64L603.94 42.59L606.63 44.65L609.24 46.8L611.76 49.05L614.2 51.39L616.54 53.83L618.79 56.35L620.95 58.96L623 61.65L624.95 64.42L626.8 67.27L628.54 70.19L630.16 73.18L631.68 76.24L633.07 79.36L634.35 82.55L635.51 85.8L636.54 89.1L637.44 92.46L638.21 95.87L638.85 99.33L639.35 102.83L639.71 106.38L639.93 109.96L640 113.58L640 397.55L639.93 401.18L639.71 404.76L639.35 408.3L638.85 411.81L638.21 415.26L637.44 418.67L636.54 422.03L635.51 425.34L634.35 428.58L633.07 431.77L631.68 434.9L630.16 437.96L628.54 440.95L626.8 443.87L624.95 446.71L623 449.48L620.95 452.18L618.79 454.78L616.54 457.31L614.2 459.74L611.76 462.09L609.24 464.34L606.63 466.49L603.94 468.54L601.17 470.49L598.33 472.34L595.4 474.08L592.41 475.71L589.35 477.22L586.23 478.62L583.04 479.89L579.79 481.05L576.49 482.08L573.13 482.98L569.72 483.75L566.26 484.39L562.76 484.89L559.22 485.25L555.63 485.47L552.01 485.54L272.87 485.54L87.68 614.41L87.68 485.54L84.07 485.46L80.49 485.23L76.96 484.85L73.47 484.34L70.02 483.7L66.62 482.92L63.27 482.01L59.98 480.97L56.75 479.81L53.57 478.53L50.45 477.13L47.4 475.61L44.42 473.98L41.51 472.24L38.68 470.39L35.92 468.44L33.24 466.38L30.64 464.23L28.12 461.98L25.7 459.64L23.36 457.21L21.12 454.68L18.98 452.08L16.93 449.39L14.99 446.62L13.15 443.78L11.42 440.86L9.8 437.88L8.29 434.82L6.9 431.7L5.62 428.52L4.47 425.28L3.45 421.98L2.55 418.63L1.78 415.23L1.15 411.78L0.65 408.28L0.29 404.75L0.07 401.17L0 397.55L0 113.58L0.07 109.96L0.29 106.38L0.65 102.83L1.15 99.33L1.79 95.87L2.56 92.46L3.46 89.1L4.49 85.8L5.65 82.55L6.93 79.36L8.32 76.24L9.84 73.18L11.46 70.19L13.2 67.27L15.05 64.42L17 61.65L19.05 58.96L21.21 56.35L23.46 53.83L25.8 51.39L28.24 49.05L30.76 46.8L33.37 44.65L36.06 42.59L38.83 40.64L41.67 38.79L44.6 37.06L47.59 35.43L50.65 33.92L53.77 32.52L56.96 31.24L60.21 30.09L63.51 29.06L66.87 28.16L70.28 27.39L73.74 26.75L77.24 26.25L80.78 25.89L84.37 25.67L87.99 25.6L552.01 25.6L555.63 25.67L559.22 25.89ZM85.91 63.14L83.85 63.26L81.82 63.47L79.81 63.76L77.83 64.12L75.87 64.56L73.94 65.08L72.05 65.67L70.18 66.34L68.35 67.07L66.56 67.87L64.81 68.74L63.09 69.67L61.41 70.67L59.78 71.73L58.19 72.85L56.65 74.03L55.15 75.26L53.7 76.55L52.3 77.9L50.96 79.29L49.67 80.74L48.43 82.24L47.25 83.78L46.13 85.37L45.07 87.01L44.08 88.68L43.14 90.4L42.28 92.15L41.47 93.95L40.74 95.78L40.08 97.64L39.49 99.54L38.97 101.46L38.53 103.42L38.16 105.4L37.87 107.41L37.67 109.45L37.54 111.5L37.5 113.58L37.5 397.55L37.54 399.63L37.67 401.69L37.87 403.72L38.16 405.73L38.53 407.72L38.97 409.67L39.49 411.6L40.08 413.49L40.74 415.36L41.47 417.19L42.28 418.98L43.14 420.74L44.08 422.45L45.07 424.13L46.13 425.76L47.25 427.35L48.43 428.9L49.67 430.39L50.96 431.84L52.3 433.24L53.7 434.58L55.15 435.87L56.65 437.11L58.19 438.29L59.78 439.41L61.41 440.47L63.09 441.46L64.81 442.4L66.56 443.27L68.35 444.07L70.18 444.8L72.05 445.46L73.94 446.05L75.87 446.57L77.83 447.01L79.81 447.38L81.82 447.67L83.85 447.87L85.91 448L87.99 448.04L125.18 448.04L125.18 542.63L261.1 448.04L552.01 448.04L554.09 448L556.15 447.87L558.18 447.67L560.19 447.38L562.17 447.01L564.13 446.57L566.06 446.05L567.95 445.46L569.82 444.8L571.65 444.07L573.44 443.27L575.19 442.4L576.91 441.46L578.59 440.47L580.22 439.41L581.81 438.29L583.35 437.11L584.85 435.87L586.3 434.58L587.7 433.24L589.04 431.84L590.33 430.39L591.57 428.9L592.75 427.35L593.87 425.76L594.93 424.13L595.92 422.45L596.86 420.74L597.72 418.98L598.53 417.19L599.26 415.36L599.92 413.49L600.51 411.6L601.03 409.67L601.47 407.72L601.84 405.73L602.13 403.72L602.33 401.69L602.46 399.63L602.5 397.55L602.5 113.58L602.46 111.5L602.33 109.45L602.13 107.41L601.84 105.4L601.47 103.42L601.03 101.46L600.51 99.54L599.92 97.64L599.26 95.78L598.53 93.95L597.72 92.15L596.86 90.4L595.92 88.68L594.93 87.01L593.87 85.37L592.75 83.78L591.57 82.24L590.33 80.74L589.04 79.29L587.7 77.9L586.3 76.55L584.85 75.26L583.35 74.03L581.81 72.85L580.22 71.73L578.59 70.67L576.91 69.67L575.19 68.74L573.44 67.87L571.65 67.07L569.82 66.34L567.95 65.67L566.06 65.08L564.13 64.56L562.17 64.12L560.19 63.76L558.18 63.47L556.15 63.26L554.09 63.14L552.01 63.09L87.99 63.09L85.91 63.14Z" id="bu2m9rlwy"></path></defs><g><g><g><use xlink:href="#bu2m9rlwy" opacity="1" fill="#929292" fill-opacity="1"></use><g><use xlink:href="#bu2m9rlwy" opacity="1" fill-opacity="0" stroke="#000000" stroke-width="1" stroke-opacity="0"></use></g></g></g></g></svg>