<!-- <svg version="1.1" xmlns="http://www.w3.org/2000/svg" xmlns:xlink="http://www.w3.org/1999/xlink" preserveAspectRatio="xMidYMid meet" viewBox="0 0 640 640" width="640" height="640"><defs><path d="M396.98 0C303.74 0 243.49 61.82 243.49 157.51C243.49 162.35 243.49 186.55 243.49 230.13C193.42 230.13 165.6 230.13 160.04 230.13C152.83 230.13 146.99 235.97 146.99 243.18C146.99 253.7 146.99 337.88 146.99 348.4C146.99 355.61 152.84 361.45 160.04 361.45C165.6 361.45 193.42 361.45 243.49 361.45C243.49 520.75 243.49 609.25 243.49 626.95C243.49 634.16 249.33 640 256.54 640C267.43 640 354.52 640 365.41 640C372.62 640 378.46 634.15 378.46 626.95C378.46 609.25 378.46 520.75 378.46 361.45C437 361.45 469.53 361.45 476.03 361.45C483.24 361.45 489.08 355.61 489.08 348.4C489.08 337.88 489.12 253.7 489.12 243.18C489.12 239.72 487.74 236.4 485.3 233.95C482.85 231.5 479.53 230.13 476.06 230.13C469.56 230.13 437.02 230.13 378.46 230.13C378.46 193.19 378.46 172.67 378.46 168.56C378.46 138.98 385.51 123.95 424.06 123.95C429.65 123.95 474.37 123.94 479.96 123.93C487.17 123.93 493.01 118.09 493.01 110.89C493.01 101.11 493.01 22.95 493.01 13.18C493.01 5.99 487.18 0.15 479.98 0.13C463.38 0.11 405.28 0.01 396.98 0Z" id="dJ1PaRK9Y"></path></defs><g><use xlink:href="#dJ1PaRK9Y" opacity="1" fill="#929292" fill-opacity="1"></use><g><use xlink:href="#dJ1PaRK9Y" opacity="1" fill-opacity="0" stroke="#000000" stroke-width="1" stroke-opacity="0"></use></g></g></svg> -->
<svg version="1.1" xmlns="http://www.w3.org/2000/svg" xmlns:xlink="http://www.w3.org/1999/xlink" preserveAspectRatio="xMidYMid meet" viewBox="0 0 640 640" width="640" height="640"><path d="M396.98 0C303.74 0 243.49 61.82 243.49 157.51C243.49 162.35 243.49 186.55 243.49 230.13C193.42 230.13 165.6 230.13 160.04 230.13C152.83 230.13 146.99 235.97 146.99 243.18C146.99 253.7 146.99 337.88 146.99 348.4C146.99 355.61 152.84 361.45 160.04 361.45C165.6 361.45 193.42 361.45 243.49 361.45C243.49 520.75 243.49 609.25 243.49 626.95C243.49 634.16 249.33 640 256.54 640C267.43 640 354.52 640 365.41 640C372.62 640 378.46 634.15 378.46 626.95C378.46 609.25 378.46 520.75 378.46 361.45C437 361.45 469.53 361.45 476.03 361.45C483.24 361.45 489.08 355.61 489.08 348.4C489.08 337.88 489.12 253.7 489.12 243.18C489.12 239.72 487.74 236.4 485.3 233.95C482.85 231.5 479.53 230.13 476.06 230.13C469.56 230.13 437.02 230.13 378.46 230.13C378.46 193.19 378.46 172.67 378.46 168.56C378.46 138.98 385.51 123.95 424.06 123.95C429.65 123.95 474.37 123.94 479.96 123.93C487.17 123.93 493.01 118.09 493.01 110.89C493.01 101.11 493.01 22.95 493.01 13.18C493.01 5.99 487.18 0.15 479.98 0.13C463.38 0.11 405.28 0.01 396.98 0Z" id="dJ1PaRK9Y"></path><use xlink:href="#dJ1PaRK9Y" opacity="1" fill="#929292" fill-opacity="1"></use></svg>