<?xml version="1.0" encoding="UTF-8" standalone="no"?>
<!DOCTYPE svg PUBLIC "-//W3C//DTD SVG 1.1//EN" "http://www.w3.org/Graphics/SVG/1.1/DTD/svg11.dtd">
<svg version="1.1" xmlns="http://www.w3.org/2000/svg" xmlns:xlink="http://www.w3.org/1999/xlink" preserveAspectRatio="xMidYMid meet" viewBox="0 0 640 640" width="640" height="640"><defs><path d="M564.4 142.28C591.6 126.04 612.36 100.52 622.12 69.76C596.76 84.88 568.76 95.56 538.92 101.52C514.84 75.88 480.52 60 443.08 60C370.44 60 311.96 118.96 311.96 191.24C311.96 201.64 312.84 211.64 315 221.16C205.92 215.84 109.4 163.56 44.56 83.92C33.24 103.56 26.6 126.04 26.6 150.24C26.6 195.68 50 235.96 84.88 259.28C63.8 258.88 43.12 252.76 25.6 243.12C25.6 243.52 25.6 244.04 25.6 244.56C25.6 308.32 71.08 361.28 130.72 373.48C120.04 376.4 108.4 377.8 96.32 377.8C87.92 377.8 79.44 377.32 71.48 375.56C88.48 427.52 136.72 465.72 194.08 466.96C149.44 501.88 92.76 522.92 31.4 522.92C20.64 522.92 10.32 522.44 0 521.12C58.12 558.6 127 580 201.28 580C442.72 580 574.72 380 574.72 206.64C574.72 200.84 574.52 195.24 574.24 189.68C600.28 171.2 622.16 148.12 640 121.56C616.2 132 590.84 138.92 564.4 142.28Z" id="bG4iiC5ry"></path></defs><g><g><g><use xlink:href="#bG4iiC5ry" opacity="1" fill="#929292" fill-opacity="1"></use><g><use xlink:href="#bG4iiC5ry" opacity="1" fill-opacity="0" stroke="#000000" stroke-width="1" stroke-opacity="0"></use></g></g></g></g></svg>