<svg 
 xmlns="http://www.w3.org/2000/svg"
 xmlns:xlink="http://www.w3.org/1999/xlink"
 width="55px" height="42px">
<path fill-rule="evenodd"  fill="rgb(15, 123, 255)"
 d="M16.923,25.200 L15.130,25.200 C16.493,27.548 18.200,29.935 19.637,31.615 C21.905,34.265 21.587,38.239 18.918,40.493 C17.725,41.504 16.262,42.000 14.808,42.000 C13.014,42.000 11.238,41.251 9.982,39.791 C8.313,37.854 -0.000,29.400 -0.000,18.900 L-0.000,8.400 C-0.000,3.761 3.789,-0.000 8.462,-0.000 L16.923,-0.000 C21.596,-0.000 25.385,3.761 25.385,8.400 L25.385,16.800 C25.385,21.439 21.596,25.200 16.923,25.200 ZM21.154,8.400 C21.154,6.085 19.257,4.200 16.923,4.200 L8.462,4.200 C6.132,4.200 4.231,6.085 4.231,8.400 L4.231,18.900 C4.231,27.011 10.577,34.118 12.659,36.455 L13.200,37.064 C13.750,37.703 14.444,37.800 14.808,37.800 C15.159,37.800 15.683,37.712 16.180,37.293 C17.064,36.544 17.171,35.218 16.411,34.334 C14.734,32.372 12.883,29.742 11.465,27.298 C10.709,25.997 10.709,24.398 11.470,23.098 C12.221,21.799 13.618,21.000 15.130,21.000 L16.923,21.000 C19.257,21.000 21.154,19.115 21.154,16.800 L21.154,8.400 ZM46.538,25.200 L44.745,25.200 C46.109,27.548 47.815,29.935 49.252,31.615 C51.521,34.265 51.203,38.239 48.534,40.493 C47.340,41.504 45.877,42.000 44.419,42.000 C42.630,42.000 40.849,41.251 39.597,39.791 C37.928,37.854 29.615,29.400 29.615,18.900 L29.615,8.400 C29.615,3.761 33.404,-0.000 38.077,-0.000 L46.538,-0.000 C51.211,-0.000 55.000,3.761 55.000,8.400 L55.000,16.800 C55.000,21.439 51.211,25.200 46.538,25.200 ZM50.769,8.400 C50.769,6.085 48.873,4.200 46.538,4.200 L38.077,4.200 C35.743,4.200 33.846,6.085 33.846,8.400 L33.846,18.900 C33.846,27.017 40.192,34.125 42.279,36.458 L42.816,37.065 C43.365,37.703 44.055,37.800 44.419,37.800 C44.774,37.800 45.299,37.712 45.795,37.293 C46.679,36.544 46.786,35.218 46.030,34.334 C44.349,32.372 42.498,29.742 41.080,27.298 C40.325,25.997 40.325,24.398 41.080,23.098 C41.837,21.799 43.233,21.000 44.745,21.000 L46.538,21.000 C48.873,21.000 50.769,19.115 50.769,16.800 L50.769,8.400 Z"/>
</svg>