<svg 
 xmlns="http://www.w3.org/2000/svg"
 xmlns:xlink="http://www.w3.org/1999/xlink"
 width="33px" height="33px">
<path fill-rule="evenodd"  fill="rgb(15, 255, 45)"
 d="M29.777,32.999 L3.223,32.999 C1.446,32.999 -0.000,31.553 -0.000,29.776 L-0.000,12.052 C-0.000,11.836 0.106,11.646 0.267,11.530 C0.267,11.530 0.267,11.530 0.267,11.530 L3.480,9.204 L3.480,1.933 C3.480,0.866 4.348,-0.002 5.414,-0.002 L8.927,-0.002 C9.283,-0.002 9.571,0.287 9.571,0.643 C9.571,1.000 9.283,1.288 8.927,1.288 L5.414,1.288 C5.059,1.288 4.769,1.577 4.769,1.933 L4.769,14.588 L12.637,21.011 L14.611,19.584 C15.741,18.765 17.259,18.765 18.389,19.584 L20.363,21.011 L28.230,14.588 L28.230,1.933 C28.230,1.577 27.941,1.288 27.586,1.288 L13.954,1.288 C13.598,1.288 13.309,1.000 13.309,0.643 C13.309,0.287 13.598,-0.002 13.954,-0.002 L27.586,-0.002 C28.652,-0.002 29.519,0.866 29.519,1.933 L29.519,9.204 L32.733,11.530 C32.898,11.648 32.989,11.831 32.999,12.020 C33.000,12.029 33.000,12.040 33.000,12.052 L33.000,29.776 C33.000,31.553 31.554,32.999 29.777,32.999 ZM3.480,10.796 L1.701,12.082 L3.480,13.535 L3.480,10.796 ZM1.289,13.410 L1.289,29.222 L11.556,21.793 L1.289,13.410 ZM17.633,20.628 C16.955,20.137 16.044,20.137 15.366,20.628 L1.503,30.658 C1.824,31.282 2.474,31.710 3.223,31.710 L29.777,31.710 C30.526,31.710 31.176,31.282 31.497,30.658 L30.455,29.905 L22.236,29.905 C21.880,29.905 21.592,29.616 21.592,29.260 C21.592,28.904 21.880,28.616 22.236,28.616 L28.674,28.616 L17.633,20.628 ZM29.519,10.796 L29.519,13.535 L31.299,12.082 L29.519,10.796 ZM31.711,13.410 L21.443,21.793 L31.711,29.222 L31.711,13.410 ZM19.315,29.905 C19.144,29.905 18.979,29.836 18.859,29.716 C18.738,29.596 18.670,29.431 18.670,29.260 C18.670,29.091 18.738,28.925 18.859,28.805 C18.979,28.685 19.144,28.616 19.315,28.616 C19.484,28.616 19.650,28.685 19.770,28.805 C19.890,28.925 19.959,29.091 19.959,29.260 C19.959,29.431 19.890,29.596 19.770,29.716 C19.650,29.836 19.484,29.905 19.315,29.905 ZM16.500,3.479 C20.071,3.479 22.976,6.384 22.976,9.956 C22.976,13.526 20.071,16.432 16.500,16.432 C12.929,16.432 10.024,13.526 10.024,9.955 C10.024,6.384 12.929,3.479 16.500,3.479 ZM16.500,15.143 C19.360,15.143 21.687,12.816 21.687,9.955 C21.687,7.095 19.360,4.768 16.500,4.768 C13.640,4.768 11.313,7.095 11.313,9.956 C11.313,12.816 13.640,15.143 16.500,15.143 ZM14.235,9.485 L15.602,10.853 L18.765,7.690 C19.017,7.439 19.425,7.439 19.676,7.690 C19.928,7.942 19.928,8.350 19.676,8.602 L16.058,12.221 C15.937,12.341 15.773,12.409 15.602,12.409 C15.431,12.409 15.267,12.341 15.146,12.221 L13.323,10.397 C13.072,10.146 13.072,9.737 13.323,9.485 C13.575,9.234 13.983,9.234 14.235,9.485 ZM11.424,1.288 C11.255,1.288 11.089,1.219 10.969,1.099 C10.849,0.979 10.780,0.813 10.780,0.643 C10.780,0.474 10.849,0.307 10.969,0.187 C11.088,0.067 11.254,-0.002 11.424,-0.002 C11.594,-0.002 11.760,0.067 11.880,0.187 C12.000,0.307 12.069,0.474 12.069,0.643 C12.069,0.813 12.000,0.979 11.880,1.099 C11.760,1.219 11.594,1.288 11.424,1.288 Z"/>
</svg>