<svg 
 xmlns="http://www.w3.org/2000/svg"
 xmlns:xlink="http://www.w3.org/1999/xlink"
 width="40px" height="52px">
<path fill-rule="evenodd"  fill="rgb(15, 123, 255)"
 d="M9.614,16.998 C10.233,14.393 12.576,12.574 15.313,12.574 C16.964,12.574 18.606,13.232 20.000,14.441 C21.394,13.232 23.036,12.574 24.687,12.574 C27.423,12.574 29.766,14.393 30.385,16.998 C30.717,18.398 30.718,20.649 28.834,23.415 C27.133,25.913 24.276,28.263 20.341,30.402 C20.129,30.517 19.871,30.517 19.659,30.402 C15.724,28.263 12.866,25.913 11.165,23.415 C9.281,20.649 9.282,18.398 9.614,16.998 ZM12.365,22.537 C13.882,24.764 16.450,26.893 20.000,28.865 C23.550,26.893 26.117,24.765 27.634,22.537 C28.872,20.718 29.330,18.929 28.958,17.362 C28.495,15.409 26.778,14.098 24.687,14.098 C23.214,14.098 21.732,14.778 20.513,16.012 C20.228,16.302 19.772,16.302 19.486,16.012 C18.268,14.778 16.786,14.098 15.313,14.098 C13.221,14.098 11.505,15.409 11.041,17.362 C10.669,18.929 11.127,20.718 12.365,22.537 ZM14.873,18.016 C15.278,18.016 15.607,18.357 15.607,18.778 L15.607,19.739 C15.607,20.160 15.278,20.501 14.873,20.501 C14.467,20.501 14.138,20.160 14.138,19.739 L14.138,18.778 C14.138,18.357 14.467,18.016 14.873,18.016 ZM19.287,19.171 C19.459,19.375 19.719,19.491 20.000,19.491 C20.281,19.491 20.541,19.375 20.712,19.171 C20.979,18.854 21.443,18.822 21.749,19.099 C22.054,19.376 22.086,19.857 21.818,20.174 C21.368,20.708 20.705,21.015 20.000,21.015 C19.295,21.015 18.632,20.708 18.181,20.174 C17.914,19.857 17.945,19.376 18.251,19.099 C18.556,18.822 19.020,18.854 19.287,19.171 ZM25.127,18.016 C25.533,18.016 25.862,18.357 25.862,18.778 L25.862,19.739 C25.862,20.160 25.533,20.501 25.127,20.501 C24.721,20.501 24.392,20.160 24.392,19.739 L24.392,18.778 C24.392,18.357 24.721,18.016 25.127,18.016 ZM10.584,33.079 L29.416,33.079 C29.822,33.079 30.151,33.420 30.151,33.841 C30.151,34.261 29.822,34.602 29.416,34.602 L10.584,34.602 C10.178,34.602 9.849,34.261 9.849,33.841 C9.849,33.420 10.178,33.079 10.584,33.079 ZM10.584,41.129 L29.416,41.129 C29.822,41.129 30.151,41.470 30.151,41.891 C30.151,42.312 29.822,42.652 29.416,42.652 L10.584,42.652 C10.178,42.652 9.849,42.312 9.849,41.891 C9.849,41.470 10.178,41.129 10.584,41.129 ZM10.584,37.104 L29.416,37.104 C29.822,37.104 30.151,37.445 30.151,37.866 C30.151,38.286 29.822,38.628 29.416,38.628 L10.584,38.628 C10.178,38.628 9.849,38.286 9.849,37.866 C9.849,37.445 10.178,37.104 10.584,37.104 ZM39.265,14.876 C39.671,14.876 40.000,15.217 40.000,15.638 L40.000,47.333 C40.000,49.906 37.981,51.999 35.500,51.999 L4.500,51.999 C2.019,51.999 -0.000,49.906 -0.000,47.333 L-0.000,7.819 C-0.000,5.246 2.019,3.152 4.500,3.152 L8.448,3.152 C8.745,2.280 9.547,1.654 10.488,1.654 L15.655,1.654 C16.083,1.654 16.495,1.497 16.817,1.213 C17.704,0.430 18.835,-0.000 20.000,-0.000 C21.165,-0.000 22.295,0.430 23.182,1.213 C23.504,1.497 23.917,1.654 24.345,1.654 L29.511,1.654 C30.453,1.654 31.255,2.280 31.551,3.152 L35.500,3.152 C37.981,3.152 40.000,5.246 40.000,7.819 L40.000,12.590 C40.000,13.011 39.671,13.352 39.265,13.352 C38.860,13.352 38.531,13.011 38.531,12.590 L38.531,7.819 C38.531,6.085 37.171,4.675 35.500,4.675 L31.674,4.675 L31.674,6.989 L35.462,6.989 C35.867,6.989 36.196,7.331 36.196,7.752 L36.196,47.400 C36.196,47.821 35.867,48.162 35.462,48.162 L4.538,48.162 C4.132,48.162 3.803,47.821 3.803,47.400 L3.803,39.809 C3.803,39.388 4.132,39.047 4.538,39.047 C4.944,39.047 5.273,39.388 5.273,39.809 L5.273,46.638 L34.727,46.638 L34.727,8.513 L31.587,8.513 C31.586,8.517 31.584,8.521 31.583,8.525 C31.460,8.971 31.185,9.373 30.832,9.655 C30.455,9.956 29.988,10.123 29.511,10.123 L10.488,10.123 C10.112,10.123 9.739,10.020 9.413,9.825 C8.937,9.540 8.577,9.069 8.417,8.525 C8.416,8.521 8.414,8.517 8.413,8.513 L5.273,8.513 L5.273,36.762 C5.273,37.182 4.944,37.524 4.538,37.524 C4.132,37.524 3.803,37.182 3.803,36.762 L3.803,7.752 C3.803,7.331 4.132,6.989 4.538,6.989 L8.325,6.989 L8.325,4.675 L4.500,4.675 C2.829,4.675 1.469,6.085 1.469,7.819 L1.469,47.333 C1.469,49.066 2.829,50.476 4.500,50.476 L35.500,50.476 C37.171,50.476 38.531,49.066 38.531,47.333 L38.531,15.638 C38.531,15.217 38.860,14.876 39.265,14.876 ZM9.795,7.752 C9.795,8.178 10.027,8.600 10.488,8.600 C10.514,8.600 29.511,8.600 29.511,8.600 C29.978,8.600 30.205,8.182 30.205,7.752 L30.205,3.897 C30.205,3.500 29.894,3.177 29.511,3.177 L24.345,3.177 C23.569,3.177 22.818,2.891 22.230,2.373 C21.609,1.825 20.817,1.523 20.000,1.523 C19.183,1.523 18.391,1.825 17.770,2.373 C17.182,2.891 16.431,3.177 15.655,3.177 L10.488,3.177 C10.106,3.177 9.795,3.500 9.795,3.897 L9.795,7.752 ZM20.000,2.721 C21.263,2.721 22.290,3.787 22.290,5.096 C22.290,6.406 21.263,7.472 20.000,7.472 C18.737,7.472 17.709,6.406 17.709,5.096 C17.709,3.787 18.737,2.721 20.000,2.721 ZM20.000,5.948 C20.453,5.948 20.821,5.566 20.821,5.096 C20.821,4.627 20.453,4.245 20.000,4.245 C19.547,4.245 19.179,4.627 19.179,5.096 C19.179,5.566 19.547,5.948 20.000,5.948 Z"/>
</svg>