<svg 
 xmlns="http://www.w3.org/2000/svg"
 xmlns:xlink="http://www.w3.org/1999/xlink"
 width="46px" height="46px">
<path fill-rule="evenodd"  fill="rgb(15, 123, 255)"
 d="M45.496,16.863 L34.189,36.445 C34.127,36.553 34.044,36.646 33.944,36.720 L28.168,40.973 C28.011,41.089 27.823,41.148 27.635,41.148 C27.481,41.148 27.326,41.108 27.186,41.027 C26.877,40.849 26.703,40.504 26.743,40.150 L27.538,33.021 C27.552,32.898 27.591,32.779 27.653,32.672 L38.960,13.089 C39.464,12.216 40.277,11.592 41.251,11.331 C42.225,11.070 43.242,11.203 44.115,11.708 C45.917,12.748 46.536,15.060 45.496,16.863 ZM28.756,38.308 L31.772,36.087 L29.172,34.586 L28.756,38.308 ZM38.732,17.077 L29.659,32.792 L33.082,34.769 L42.156,19.054 L38.732,17.077 ZM44.137,14.464 C44.000,13.955 43.673,13.528 43.216,13.264 C42.759,13.000 42.226,12.930 41.716,13.067 C41.206,13.203 40.780,13.530 40.516,13.987 L39.630,15.521 L43.054,17.498 L43.940,15.964 C44.203,15.507 44.274,14.974 44.137,14.464 ZM7.939,35.853 C7.772,36.020 7.540,36.117 7.303,36.117 C7.066,36.117 6.835,36.020 6.668,35.853 C6.500,35.686 6.404,35.454 6.404,35.218 C6.404,34.982 6.500,34.750 6.668,34.583 C6.836,34.416 7.066,34.320 7.303,34.320 C7.540,34.320 7.771,34.416 7.939,34.583 C8.106,34.750 8.202,34.982 8.202,35.218 C8.202,35.454 8.106,35.686 7.939,35.853 ZM7.303,26.054 C7.066,26.054 6.836,25.958 6.668,25.791 C6.500,25.623 6.404,25.392 6.404,25.155 C6.404,24.919 6.500,24.687 6.668,24.521 C6.835,24.353 7.066,24.257 7.303,24.257 C7.540,24.257 7.772,24.353 7.939,24.521 C8.106,24.687 8.202,24.919 8.202,25.155 C8.202,25.392 8.106,25.623 7.939,25.791 C7.771,25.958 7.540,26.054 7.303,26.054 ZM7.939,30.822 C7.771,30.989 7.540,31.085 7.303,31.085 C7.066,31.085 6.836,30.989 6.668,30.822 C6.500,30.655 6.404,30.423 6.404,30.187 C6.404,29.950 6.500,29.719 6.668,29.552 C6.836,29.385 7.066,29.289 7.303,29.289 C7.540,29.289 7.771,29.385 7.939,29.552 C8.106,29.719 8.202,29.950 8.202,30.187 C8.202,30.423 8.106,30.655 7.939,30.822 ZM23.899,41.148 L19.048,41.148 C18.551,41.148 18.149,40.745 18.149,40.249 C18.149,39.753 18.551,39.351 19.048,39.351 L23.899,39.351 C24.395,39.351 24.798,39.753 24.798,40.249 C24.798,40.745 24.395,41.148 23.899,41.148 ZM19.048,4.851 C23.605,4.851 27.314,8.559 27.314,13.116 C27.314,15.481 26.315,17.616 24.718,19.124 C24.688,19.157 24.657,19.186 24.622,19.214 C23.151,20.559 21.194,21.382 19.048,21.382 C16.902,21.382 14.944,20.560 13.473,19.214 C13.438,19.186 13.407,19.157 13.377,19.124 C11.780,17.616 10.782,15.481 10.782,13.116 C10.782,8.559 14.490,4.851 19.048,4.851 ZM19.048,19.585 C20.515,19.585 21.869,19.094 22.955,18.267 C22.165,16.867 20.692,15.991 19.048,15.991 C17.403,15.991 15.930,16.867 15.140,18.267 C16.226,19.094 17.581,19.585 19.048,19.585 ZM20.485,12.757 L20.485,12.174 C20.485,11.381 19.840,10.735 19.048,10.735 C18.255,10.735 17.610,11.381 17.610,12.174 L17.610,12.757 C17.610,13.550 18.255,14.195 19.048,14.195 C19.840,14.195 20.485,13.550 20.485,12.757 ZM13.842,16.951 C14.504,15.968 15.423,15.204 16.489,14.732 C16.066,14.186 15.813,13.501 15.813,12.757 L15.813,12.174 C15.813,10.390 17.264,8.939 19.048,8.939 C20.831,8.939 22.282,10.390 22.282,12.174 L22.282,12.757 C22.282,13.501 22.029,14.186 21.606,14.732 C22.672,15.204 23.591,15.968 24.253,16.951 C25.047,15.878 25.517,14.551 25.517,13.116 C25.517,9.550 22.615,6.648 19.048,6.648 C15.481,6.648 12.579,9.550 12.579,13.116 C12.579,14.551 13.049,15.878 13.842,16.951 ZM11.141,24.257 L23.899,24.257 C24.395,24.257 24.798,24.659 24.798,25.155 C24.798,25.652 24.395,26.054 23.899,26.054 L11.141,26.054 C10.645,26.054 10.243,25.652 10.243,25.155 C10.243,24.659 10.645,24.257 11.141,24.257 ZM11.141,34.320 L23.899,34.320 C24.395,34.320 24.798,34.722 24.798,35.218 C24.798,35.714 24.395,36.117 23.899,36.117 L11.141,36.117 C10.645,36.117 10.243,35.714 10.243,35.218 C10.243,34.722 10.645,34.320 11.141,34.320 ZM11.141,29.289 L23.899,29.289 C24.395,29.289 24.798,29.690 24.798,30.187 C24.798,30.684 24.395,31.085 23.899,31.085 L11.141,31.085 C10.645,31.085 10.243,30.684 10.243,30.187 C10.243,29.690 10.645,29.289 11.141,29.289 ZM37.197,13.364 C36.701,13.364 36.298,12.961 36.298,12.465 L36.298,2.695 C36.298,2.200 35.895,1.796 35.400,1.796 L2.695,1.796 C2.200,1.796 1.797,2.200 1.797,2.695 L1.797,43.304 C1.797,43.800 2.200,44.203 2.695,44.203 L35.400,44.203 C35.895,44.203 36.298,43.800 36.298,43.304 L36.298,36.685 C36.298,36.189 36.701,35.786 37.197,35.786 C37.693,35.786 38.095,36.189 38.095,36.685 L38.095,43.304 C38.095,44.791 36.886,46.000 35.400,46.000 L2.695,46.000 C1.209,46.000 -0.000,44.791 -0.000,43.304 L-0.000,2.695 C-0.000,1.208 1.209,-0.001 2.695,-0.001 L35.400,-0.001 C36.886,-0.001 38.095,1.208 38.095,2.695 L38.095,12.465 C38.095,12.961 37.693,13.364 37.197,13.364 Z"/>
</svg>