<?xml version="1.0" encoding="UTF-8" standalone="no"?>
<!DOCTYPE svg PUBLIC "-//W3C//DTD SVG 1.1//EN" "http://www.w3.org/Graphics/SVG/1.1/DTD/svg11.dtd">
<svg version="1.1" xmlns="http://www.w3.org/2000/svg" xmlns:xlink="http://www.w3.org/1999/xlink" preserveAspectRatio="xMidYMid meet" viewBox="0 0 640 640" width="640" height="640"><defs><path d="M271.15 0.83L281.24 1.86L291.22 3.29L301.07 5.1L310.78 7.3L320.34 9.86L329.75 12.8L339 16.09L348.08 19.73L356.98 23.7L365.7 28.01L374.22 32.65L382.54 37.6L390.65 42.86L398.54 48.42L406.2 54.27L413.63 60.4L420.82 66.81L427.75 73.49L434.43 80.42L440.84 87.61L446.97 95.04L452.82 102.7L458.38 110.59L463.64 118.7L468.59 127.02L473.23 135.54L477.54 144.26L481.51 153.16L485.15 162.24L488.44 171.49L491.38 180.9L493.94 190.46L496.14 200.17L497.95 210.02L499.38 220L500.41 230.09L501.03 240.3L501.24 250.62L501.2 254.83L501.1 259.02L500.93 263.19L500.68 267.34L500.37 271.48L499.99 275.59L499.54 279.69L499.03 283.76L498.45 287.82L497.81 291.85L497.1 295.86L496.33 299.85L495.49 303.82L494.59 307.76L493.63 311.68L492.61 315.58L491.52 319.45L490.38 323.29L489.17 327.11L487.91 330.9L486.59 334.67L485.2 338.41L483.77 342.12L482.27 345.8L480.72 349.46L479.11 353.08L477.45 356.67L475.73 360.24L473.95 363.77L472.13 367.27L470.25 370.74L468.32 374.17L466.34 377.58L464.3 380.95L462.22 384.28L460.08 387.58L457.9 390.85L455.67 394.08L453.39 397.27L451.06 400.43L640 589.37L589.37 640L400.43 451.06L397.27 453.39L394.08 455.67L390.85 457.9L387.58 460.08L384.28 462.22L380.95 464.3L377.58 466.34L374.17 468.32L370.74 470.25L367.27 472.13L363.77 473.95L360.24 475.73L356.67 477.45L353.08 479.11L349.46 480.72L345.8 482.27L342.12 483.77L338.41 485.2L334.67 486.59L330.9 487.91L327.11 489.17L323.29 490.38L319.45 491.52L315.58 492.61L311.68 493.63L307.76 494.59L303.82 495.49L299.85 496.33L295.86 497.1L291.85 497.81L287.82 498.45L283.76 499.03L279.69 499.54L275.59 499.99L271.48 500.37L267.34 500.68L263.19 500.93L259.02 501.1L254.83 501.2L250.62 501.24L240.3 501.03L230.09 500.41L220 499.38L210.02 497.95L200.17 496.14L190.46 493.94L180.9 491.38L171.49 488.44L162.24 485.15L153.16 481.51L144.26 477.54L135.54 473.23L127.02 468.59L118.7 463.64L110.59 458.38L102.7 452.82L95.04 446.97L87.61 440.84L80.42 434.43L73.49 427.75L66.81 420.82L60.4 413.63L54.27 406.2L48.42 398.54L42.86 390.65L37.6 382.54L32.65 374.22L28.01 365.7L23.7 356.98L19.73 348.08L16.09 339L12.8 329.75L9.86 320.34L7.3 310.78L5.1 301.07L3.29 291.22L1.86 281.24L0.83 271.15L0.21 260.94L0 250.62L0.21 240.3L0.83 230.09L1.86 220L3.29 210.02L5.1 200.17L7.3 190.46L9.86 180.9L12.8 171.49L16.09 162.24L19.73 153.16L23.7 144.26L28.01 135.54L32.65 127.02L37.6 118.7L42.86 110.59L48.42 102.7L54.27 95.04L60.4 87.61L66.81 80.42L73.49 73.49L80.42 66.81L87.61 60.4L95.04 54.27L102.7 48.42L110.59 42.86L118.7 37.6L127.02 32.65L135.54 28.01L144.26 23.7L153.16 19.73L162.24 16.09L171.49 12.8L180.9 9.86L190.46 7.3L200.17 5.1L210.02 3.29L220 1.86L230.09 0.83L240.3 0.21L250.62 0L260.94 0.21L271.15 0.83ZM232.05 24.62L222.91 25.55L213.89 26.84L204.98 28.48L196.19 30.47L187.54 32.79L179.02 35.45L170.66 38.42L162.44 41.72L154.39 45.31L146.5 49.22L138.79 53.41L131.26 57.89L123.93 62.65L116.79 67.67L109.85 72.97L103.13 78.52L96.63 84.32L90.36 90.36L84.32 96.63L78.52 103.13L72.97 109.85L67.67 116.79L62.65 123.93L57.89 131.26L53.41 138.79L49.22 146.5L45.31 154.39L41.72 162.44L38.42 170.66L35.45 179.02L32.79 187.54L30.47 196.19L28.48 204.98L26.84 213.89L25.55 222.91L24.62 232.05L24.06 241.29L23.87 250.62L24.06 259.95L24.62 269.19L25.55 278.33L26.84 287.35L28.48 296.26L30.47 305.05L32.79 313.7L35.45 322.22L38.42 330.58L41.72 338.8L45.31 346.85L49.22 354.74L53.41 362.45L57.89 369.98L62.65 377.31L67.67 384.45L72.97 391.39L78.52 398.11L84.32 404.61L90.36 410.88L96.63 416.92L103.13 422.72L109.85 428.27L116.79 433.57L123.93 438.59L131.26 443.35L138.79 447.83L146.5 452.02L154.39 455.93L162.44 459.52L170.66 462.82L179.02 465.79L187.54 468.45L196.19 470.77L204.98 472.76L213.89 474.4L222.91 475.69L232.05 476.62L241.29 477.18L250.62 477.37L259.95 477.18L269.19 476.62L278.33 475.69L287.35 474.4L296.26 472.76L305.05 470.77L313.7 468.45L322.22 465.79L330.58 462.82L338.8 459.52L346.85 455.93L354.74 452.02L362.45 447.83L369.98 443.35L377.31 438.59L384.45 433.57L391.39 428.27L398.11 422.72L404.61 416.92L410.88 410.88L416.92 404.61L422.72 398.11L428.27 391.39L433.57 384.45L438.59 377.31L443.35 369.98L447.83 362.45L452.02 354.74L455.93 346.85L459.52 338.8L462.82 330.58L465.79 322.22L468.45 313.7L470.77 305.05L472.76 296.26L474.4 287.35L475.69 278.33L476.62 269.19L477.18 259.95L477.37 250.62L477.18 241.29L476.62 232.05L475.69 222.91L474.4 213.89L472.76 204.98L470.77 196.19L468.45 187.54L465.79 179.02L462.82 170.66L459.52 162.44L455.93 154.39L452.02 146.5L447.83 138.79L443.35 131.26L438.59 123.93L433.57 116.79L428.27 109.85L422.72 103.13L416.92 96.63L410.88 90.36L404.61 84.32L398.11 78.52L391.39 72.97L384.45 67.67L377.31 62.65L369.98 57.89L362.45 53.41L354.74 49.22L346.85 45.31L338.8 41.72L330.58 38.42L322.22 35.45L313.7 32.79L305.05 30.47L296.26 28.48L287.35 26.84L278.33 25.55L269.19 24.62L259.95 24.06L250.62 23.87L241.29 24.06L232.05 24.62Z" id="acH86t8LH"></path></defs><g><g><g><use xlink:href="#acH86t8LH" opacity="1" fill="#ffffff" fill-opacity="1"></use><g><use xlink:href="#acH86t8LH" opacity="1" fill-opacity="0" stroke="#000000" stroke-width="1" stroke-opacity="0"></use></g></g></g></g></svg>